<?xml version="1.0" encoding="UTF-8" standalone="no"?>
<!-- Created with Inkscape (http://www.inkscape.org/) -->

<svg
   width="297mm"
   height="210mm"
   viewBox="0 0 297 210"
   version="1.1"
   id="svg5"
   xml:space="preserve"
   inkscape:version="1.2.2 (732a01da63, 2022-12-09)"
   sodipodi:docname="ascs_logo_hires.svg"
   xmlns:inkscape="http://www.inkscape.org/namespaces/inkscape"
   xmlns:sodipodi="http://sodipodi.sourceforge.net/DTD/sodipodi-0.dtd"
   xmlns="http://www.w3.org/2000/svg"
   xmlns:svg="http://www.w3.org/2000/svg"><sodipodi:namedview
     id="namedview7"
     pagecolor="#ffffff"
     bordercolor="#000000"
     borderopacity="0.25"
     inkscape:showpageshadow="2"
     inkscape:pageopacity="0.0"
     inkscape:pagecheckerboard="0"
     inkscape:deskcolor="#d1d1d1"
     inkscape:document-units="mm"
     showgrid="false"
     inkscape:zoom="0.70710678"
     inkscape:cx="283.54982"
     inkscape:cy="593.26259"
     inkscape:window-width="1963"
     inkscape:window-height="1230"
     inkscape:window-x="446"
     inkscape:window-y="109"
     inkscape:window-maximized="0"
     inkscape:current-layer="layer1" /><defs
     id="defs2" /><g
     inkscape:label="Layer 1"
     inkscape:groupmode="layer"
     id="layer1"><path
       id="path497"
       style="display:inline;fill:#2a508b;stroke-width:0.0635"
       d="m 154.96987,44.513045 c -1.26494,-0.0139 -2.88527,-0.0092 -5.68596,0.0052 -6.379,0.0328 -6.725,0.0434 -11.81116,0.362252 -5.58713,0.350261 -7.26426,0.52708 -15.71636,1.654162 -4.52304,0.603147 -11.51396,1.963106 -16.00005,3.112472 -6.201555,1.588875 -8.594137,2.283626 -12.955803,3.764111 -2.774422,0.941726 -7.391761,2.684459 -8.987565,3.392041 -0.784506,0.347853 -1.801351,0.792506 -2.25981,0.988054 -1.000428,0.426714 -5.01191,2.362535 -6.564458,3.167765 -2.416177,1.253154 -4.018005,2.167447 -6.127791,3.498494 -4.021265,2.536984 -8.22806,5.705101 -10.890291,8.20105 -0.715962,0.671243 -1.419406,1.324654 -1.563212,1.452108 -0.303402,0.268902 -2.189008,2.279318 -3.135726,3.343465 -2.366473,2.660003 -4.738253,6.174632 -6.373255,9.443351 -0.441491,0.882636 -1.662671,3.881759 -1.998327,4.907711 -0.265972,0.812958 -0.934251,3.633987 -1.087789,4.591968 -0.167488,1.045014 -0.382923,3.749201 -0.382923,4.805901 0,1.05671 0.215435,3.76089 0.382923,4.80591 0.153538,0.95798 0.821817,3.77953 1.087789,4.59249 0.3098,0.94692 1.542215,3.99624 1.932698,4.78162 0.62515,1.25736 2.356757,4.16518 3.277836,5.50509 0.939897,1.36728 2.691861,3.54828 4.055567,5.04827 1.658929,1.82471 4.561924,4.53029 6.75721,6.29781 1.506086,1.2126 4.393346,3.32933 6.064746,4.44624 1.119196,0.7479 4.787743,2.9798 5.869409,3.57084 6.892946,3.76642 11.611465,5.80177 21.086052,9.09505 1.218242,0.42345 4.870353,1.51762 7.80572,2.33887 2.518,0.70449 9.05574,2.17802 12.26024,2.76314 7.04477,1.28634 9.33537,1.62809 14.85904,2.21899 4.81329,0.5149 10.2663,0.90511 14.61358,1.04541 0.83355,0.0269 3.91667,0.0539 6.85178,0.0589 5.74386,0.0108 9.52708,-0.0995 12.69741,-0.37052 0.80328,-0.0687 2.14663,-0.16946 2.98483,-0.22376 0.8382,-0.0543 2.58093,-0.2127 3.87315,-0.35192 1.29223,-0.13921 3.27811,-0.35333 4.41317,-0.47594 3.79846,-0.41033 11.24507,-1.63136 14.89108,-2.44171 2.7807,-0.61803 6.9502,-1.59994 8.25479,-1.94407 6.11511,-1.61308 11.637,-3.4197 16.8274,-5.50509 5.98185,-2.40337 9.01031,-3.85045 14.41462,-6.88898 4.38945,-2.46792 10.27194,-6.67141 13.87461,-9.91413 1.63909,-1.47532 4.24027,-4.21269 5.5857,-5.87819 1.31624,-1.62934 3.39594,-4.60053 4.28915,-6.12779 1.00462,-1.71777 2.08125,-4.07744 2.86029,-6.26887 1.31276,-3.69276 1.95224,-7.95932 1.74666,-11.652518 -0.13653,-2.4528 -0.40703,-4.232936 -0.98908,-6.503996 -0.67264,-2.624439 -2.18126,-6.26596 -3.59978,-8.689909 -0.77306,-1.320988 -2.58395,-3.956906 -3.67058,-5.342826 -2.20344,-2.81033 -4.96139,-5.671571 -7.61917,-7.904427 -4.68226,-3.933644 -8.78959,-6.712878 -14.6048,-9.882085 -2.25649,-1.22975 -3.25163,-1.738686 -4.35012,-2.225704 -0.62865,-0.278711 -1.66969,-0.75501 -2.31355,-1.058333 -1.74348,-0.821353 -4.69608,-2.02656 -9.33845,-3.811653 -2.79712,-1.075554 -8.67953,-2.892346 -13.24002,-4.089157 -3.47699,-0.912465 -10.93938,-2.514325 -13.79554,-2.961576 -0.79444,-0.124403 -2.07282,-0.337849 -2.84117,-0.47439 -1.4891,-0.264623 -6.26228,-0.904771 -8.73125,-1.170988 -1.89193,-0.203997 -6.93792,-0.637658 -8.8899,-0.763777 -0.82074,-0.05303 -2.86389,-0.156104 -4.54029,-0.229444 -1.3788,-0.06031 -2.28833,-0.09307 -3.55327,-0.10697 z m -5.38365,3.701583 c 1.51538,-0.0032 3.06732,0.01727 4.71392,0.05994 4.80075,0.124433 5.16936,0.146323 9.71569,0.569991 4.64593,0.43295 6.26117,0.614422 7.9375,0.892969 0.71596,0.118967 2.00519,0.316047 2.86494,0.437699 2.53979,0.359373 7.52265,1.363054 10.62881,2.140955 2.99747,0.750679 8.31903,2.262527 9.81077,2.787426 0.61119,0.215059 1.72544,0.601204 2.47633,0.857829 2.25287,0.769945 7.69108,2.989355 9.58857,3.913456 2.94898,1.436196 6.13651,3.136253 8.35039,4.453475 1.69988,1.011402 5.4192,3.531696 6.57221,4.453475 0.57626,0.460697 1.37603,1.090996 1.77767,1.400948 1.71441,1.323049 4.72195,4.164424 6.75566,6.382556 2.3121,2.521751 4.66741,5.879876 6.45852,9.207707 0.50018,0.929327 1.77847,4.027479 2.27996,5.524727 0.27067,0.808592 0.71775,2.583678 1.00718,4.000273 0.68218,3.340333 0.68216,7.812876 -5.2e-4,11.302666 -0.63545,3.24829 -1.47621,5.84914 -2.72955,8.44548 -1.19679,2.4792 -1.91741,3.67698 -3.95325,6.57221 -1.39595,1.98523 -2.50335,3.26507 -5.01933,5.80016 -2.5014,2.52041 -3.56525,3.45278 -6.79855,5.95777 -1.88173,1.45787 -6.98401,4.73618 -9.08058,5.83427 -0.45402,0.2378 -1.24291,0.66802 -1.75287,0.95602 -3.17102,1.79086 -9.3757,4.48447 -14.2291,6.1774 -2.94219,1.02627 -5.00344,1.67718 -6.46524,2.04122 -0.71596,0.17829 -1.78752,0.46332 -2.38125,0.63356 -5.84144,1.67485 -15.3704,3.4069 -22.38365,4.06848 -1.48431,0.14002 -4.0846,0.35454 -5.77846,0.47697 l -3.07991,0.22274 -5.36608,0.0227 c -5.65357,0.0236 -7.83345,-0.0148 -9.96942,-0.1757 -0.71596,-0.0539 -1.75889,-0.11626 -2.31769,-0.13797 -1.46833,-0.0571 -3.46739,-0.24393 -6.82594,-0.6382 -5.03582,-0.5912 -6.54482,-0.83055 -12.03027,-1.90892 -3.28483,-0.64575 -7.94432,-1.77133 -10.13168,-2.4474 -7.63707,-2.36048 -10.848282,-3.54297 -16.731798,-6.16241 -2.644176,-1.17724 -8.934913,-4.68113 -11.525394,-6.41925 -2.260681,-1.51684 -4.321083,-3.07595 -6.890019,-5.21467 -1.376879,-1.1463 -4.415148,-4.13215 -5.627563,-5.53041 -2.27964,-2.62908 -3.773762,-4.7058 -5.436361,-7.55665 -0.940701,-1.61301 -1.860124,-3.65628 -2.70061,-6.00066 -1.694068,-4.7253 -2.204198,-9.61922 -1.542025,-14.795488 0.147807,-1.155428 0.568774,-3.10112 0.968416,-4.476729 0.306095,-1.053609 1.337435,-3.905046 1.74563,-4.826062 1.088069,-2.455028 3.067762,-5.645884 5.164543,-8.323523 1.405787,-1.795222 2.537391,-3.047318 4.696354,-5.196065 1.631552,-1.623835 4.173845,-3.835143 5.828585,-5.069975 0.900501,-0.671988 2.615127,-1.900508 3.030822,-2.171444 6.740901,-4.39349 11.152846,-6.668502 18.351852,-9.464022 4.539358,-1.762723 4.422768,-1.722556 9.430948,-3.263883 3.19917,-0.984581 7.03361,-1.946679 11.77809,-2.955375 3.42196,-0.727521 10.40245,-1.744574 14.6048,-2.128036 5.44688,-0.497053 9.6628,-0.722524 14.20895,-0.732255 z" /><path
       id="path493"
       style="display:inline;fill:#d10708;stroke-width:0.0635"
       d="m 150.87968,56.636853 c -0.28361,-0.0042 -0.5471,0.0126 -0.95498,0.04858 -3.19317,0.281665 -5.89458,1.855575 -7.90443,4.604887 -1.49982,2.05163 -1.62647,2.261045 -2.1487,3.559472 -1.34993,3.356396 -1.62831,4.385327 -2.20969,8.159709 -0.17679,1.147499 -0.19538,1.433656 -0.25218,3.905188 -0.0337,1.466843 -0.093,3.238211 -0.13177,3.936711 -0.0888,1.598127 -0.0402,32.601084 0.0568,36.258764 0.0919,3.46356 0.31401,6.84671 0.62167,9.46144 0.34824,2.95977 1.257,5.95616 2.5585,8.43618 0.50596,0.96412 0.73228,1.31583 1.3379,2.07739 1.1079,1.39315 1.36898,1.64236 2.54145,2.43138 1.06623,0.71753 1.57692,0.98365 2.53989,1.32188 1.0975,0.38548 1.61876,0.51319 2.28617,0.56069 0.36672,0.0263 1.28104,0.0406 2.03192,0.0326 1.25485,-0.0139 1.44228,-0.0315 2.31768,-0.21549 0.85241,-0.17918 1.04658,-0.2464 1.84692,-0.64027 2.098,-1.03249 3.17473,-1.98428 4.71289,-4.16564 1.54304,-2.18827 2.70441,-4.70752 3.22358,-6.99234 0.60876,-2.67911 0.80537,-4.06842 0.9772,-6.91017 0.0718,-1.18745 0.16029,-2.64484 0.19689,-3.23856 0.0366,-0.59373 0.0834,-3.57313 0.10386,-6.62027 l 0.0372,-5.54023 h -5.78517 -5.78518 l -0.0295,7.25485 c -0.0369,8.99376 -0.0683,9.77941 -0.46147,11.54142 -0.18724,0.83911 -0.3925,1.22283 -0.83354,1.55959 -0.27218,0.20784 -0.31039,0.21808 -0.81132,0.21808 -0.47786,0 -0.55686,-0.0182 -0.86971,-0.20361 -0.42118,-0.24959 -0.70857,-0.65835 -0.77257,-1.09864 -0.0253,-0.17417 -0.0838,-0.48808 -0.13022,-0.69763 -0.0464,-0.20955 -0.13714,-0.7672 -0.20154,-1.23869 -0.11214,-0.82083 -0.1173,-1.89579 -0.1173,-25.304395 0,-23.286717 0.006,-24.488369 0.11575,-25.304915 0.0636,-0.471488 0.15791,-1.071322 0.20981,-1.333252 0.0519,-0.261938 0.11429,-0.59423 0.13849,-0.738456 0.0471,-0.280629 0.33543,-0.641907 0.81752,-1.023711 0.24974,-0.197768 0.28411,-0.206705 0.82476,-0.206705 0.41833,0 0.60445,0.02723 0.72088,0.104903 0.60846,0.405867 1.00916,1.076082 1.13275,1.895491 0.16989,1.126063 0.2231,3.859385 0.2434,12.493811 l 0.0207,8.810315 h 5.78466 5.78466 l -0.031,-7.349939 c -0.0324,-7.704703 -0.046,-8.158427 -0.39119,-12.811104 -0.11776,-1.587206 -0.47269,-3.737759 -0.89555,-5.429126 -0.6456,-2.582309 -1.5275,-4.379077 -3.33572,-6.794934 -0.86861,-1.160598 -2.03936,-2.330802 -2.93212,-2.931087 -0.32005,-0.215203 -1.01186,-0.59907 -1.53737,-0.853178 -1.18715,-0.574045 -2.00892,-0.792393 -3.58583,-0.95188 -0.48838,-0.0494 -0.79229,-0.07485 -1.0759,-0.07906 z m 27.60297,1.966805 c -0.31043,0.006 -0.6159,0.02492 -0.91881,0.05581 -0.64212,0.06547 -0.9883,0.141844 -1.70739,0.378271 -2.22338,0.731011 -4.07415,2.302747 -5.45548,4.632275 -0.44107,0.743841 -0.55696,1.005805 -0.84491,1.909961 -0.29295,0.919883 -0.81266,2.950144 -1.12138,4.381128 -0.12142,0.562827 -0.39761,4.357913 -0.48731,6.699333 -0.0652,1.702715 -0.0416,3.932226 0.0744,7.080188 0.0694,1.882632 0.17801,2.80985 0.63665,5.429643 0.30702,1.753718 0.95622,4.170027 1.52704,5.682857 0.27038,0.716586 1.02621,2.136608 1.53789,2.889229 0.14246,0.20955 0.54714,0.738566 0.89917,1.175122 0.35203,0.436562 0.82287,1.036384 1.04645,1.333254 0.74073,0.98354 2.75966,3.41462 3.74447,4.50877 0.56297,0.62546 1.28309,1.50466 1.95027,2.38125 0.21265,0.2794 0.4931,0.60795 0.62322,0.73019 0.13012,0.12217 0.43666,0.52212 0.68109,0.88883 0.53333,0.80016 0.74611,1.08275 1.09916,1.46038 0.16154,0.17278 0.35983,0.49943 0.50178,0.82579 0.4534,1.04247 0.52454,1.32359 0.66249,2.61327 0.28234,2.63942 0.32808,3.50516 0.32608,6.1495 -0.002,2.69768 -0.0416,3.19342 -0.34882,4.37647 -0.19991,0.76982 -0.70262,1.61457 -1.12861,1.89653 -0.24313,0.16097 -0.30677,0.1726 -0.94413,0.1726 h -0.68316 l -0.21549,-0.20877 c -0.52062,-0.50391 -0.83245,-1.72575 -0.93483,-3.6649 -0.0295,-0.5588 -0.0559,-3.52363 -0.0589,-6.58822 l -0.005,-5.57227 -0.45992,-0.002 c -0.2532,-0.001 -2.66812,0.048 -5.36608,0.10904 l -4.90513,0.1111 0.001,3.36775 c 0.001,2.99332 0.12836,8.28114 0.21756,9.05061 0.0182,0.15716 0.0928,1.10064 0.16588,2.096 0.10134,1.37897 0.17648,2.00598 0.31471,2.63498 0.0998,0.45402 0.21499,1.06843 0.25579,1.36529 0.13307,0.96745 0.69749,2.78295 1.2144,3.90519 0.97904,2.12555 2.25333,3.67667 4.0535,4.93458 1.43957,1.00592 1.81303,1.1634 3.58738,1.51257 h 5.1e-4 c 1.43435,0.28226 2.5997,0.22853 4.63538,-0.21394 2.54322,-0.55278 4.87293,-1.99121 6.87245,-4.24315 1.12356,-1.2654 1.87623,-2.31956 2.39624,-3.35535 0.78463,-1.56302 1.50558,-3.61747 1.59318,-4.54029 0.0232,-0.24447 0.098,-0.71569 0.1664,-1.04748 0.32217,-1.56193 0.4665,-4.60865 0.4625,-9.77925 -0.003,-3.81292 -0.0125,-4.00475 -0.3514,-7.38198 -0.40503,-4.03655 -0.92809,-6.00142 -2.37866,-8.931238 -0.5705,-1.152239 -0.62785,-1.238777 -2.35697,-3.562056 -2.46306,-3.309516 -2.79943,-3.720307 -4.78162,-5.842021 -3.23413,-3.461857 -3.81908,-4.218097 -4.86275,-6.286438 -0.23272,-0.461197 -0.39347,-1.173992 -0.50126,-2.222603 -0.4201,-4.08696 -0.23305,-7.657892 0.47594,-9.080583 0.19011,-0.381472 0.39974,-0.599933 0.78703,-0.820622 0.21816,-0.124314 0.30529,-0.137919 0.65216,-0.100769 0.4778,0.05117 0.68481,0.200174 1.03973,0.749309 0.659,1.019627 0.75615,1.963469 0.75551,7.350455 l -5.2e-4,3.971334 2.46083,0.112138 c 1.35334,0.06158 3.63122,0.195935 5.06223,0.29869 1.43094,0.102756 2.70034,0.187068 2.8205,0.187068 h 0.21807 l -0.0413,-5.095813 c -0.0414,-5.065943 -0.0426,-5.10143 -0.20102,-6.002734 -0.0893,-0.508385 -0.15917,-1.152235 -0.15917,-1.465544 0,-0.42196 -0.0449,-0.720724 -0.18396,-1.220597 -0.10126,-0.364039 -0.20475,-0.875977 -0.22945,-1.137915 -0.0331,-0.351436 -0.14469,-0.742691 -0.42684,-1.492415 -0.573,-1.522576 -1.09689,-2.519087 -1.81695,-3.45767 -1.9082,-2.487307 -3.9251,-4.081688 -6.53138,-5.162993 -0.86304,-0.358059 -1.1628,-0.447834 -2.14612,-0.641821 -1.05978,-0.209052 -2.03293,-0.303382 -2.96416,-0.285254 z m -55.63588,0.128674 c -0.29051,-0.01286 -0.66379,-0.006 -1.31207,0.0124 -1.39975,0.03975 -1.44943,0.04621 -2.44481,0.299723 -2.33479,0.594648 -4.06504,1.390726 -5.36918,2.471167 -1.84951,1.532263 -3.65395,4.146021 -4.4943,6.509163 -0.99233,2.790523 -1.24239,4.451016 -1.57717,10.479464 -0.0995,1.784824 -0.0994,2.059711 0.001,4.286043 0.059,1.308454 0.10676,2.722269 0.10593,3.141411 -0.002,1.21523 0.45222,4.139521 0.95757,6.159314 0.39506,1.579025 1.44767,4.01053 2.24017,5.175394 0.25739,0.378334 1.029,1.374841 1.52394,1.968356 0.21843,0.261931 0.75064,0.94768 1.18287,1.52394 0.43224,0.57626 1.23135,1.54785 1.77612,2.15904 0.54477,0.61119 1.23185,1.3969 1.52652,1.74615 0.29465,0.34925 0.73706,0.86368 0.98289,1.14308 0.24582,0.2794 0.63016,0.75114 0.85421,1.048 0.22406,0.29686 0.5698,0.72538 0.76843,0.95239 0.19863,0.22701 0.50766,0.63765 0.68678,0.91261 0.17913,0.27497 0.46388,0.68943 0.63304,0.92087 0.44882,0.6142 0.99759,1.56738 1.1777,2.04587 0.19675,0.52273 0.48369,1.8666 0.48369,2.2655 3e-5,0.16534 0.0714,1.00056 0.15865,1.85622 0.1427,1.39967 0.15911,1.83113 0.15916,4.30051 v 2.74453 l -0.24856,0.97307 c -0.53489,2.09659 -0.82896,2.45928 -1.99264,2.45928 h -0.5948 l -0.3669,-0.37207 c -0.42294,-0.42815 -0.70762,-1.00116 -0.80202,-1.61489 -0.0334,-0.21696 -0.0936,-0.58017 -0.13384,-0.80718 -0.1586,-0.8952 -0.19068,-2.02648 -0.21808,-7.65587 l -0.0284,-5.84667 -2.36368,-0.078 c -1.29992,-0.043 -3.50658,-0.13374 -4.90358,-0.20154 -1.39693,-0.0678 -2.72192,-0.1235 -2.94452,-0.1235 l -0.40463,-5.2e-4 0.031,4.04781 c 0.0211,2.72423 0.0651,4.56751 0.13488,5.63584 0.057,0.87305 0.13424,2.07329 0.17104,2.66702 0.0774,1.24833 0.24467,2.58337 0.46613,3.7145 0.0855,0.43656 0.17527,0.93693 0.19947,1.11156 0.0242,0.17462 0.19497,0.86036 0.37982,1.52394 0.3945,1.41614 0.94143,2.67303 1.8371,4.22248 0.47602,0.8235 0.72119,1.16078 1.50171,2.06395 1.43818,1.66431 2.07488,2.25269 3.19722,2.95693 1.19918,0.75242 2.472,1.27607 4.16202,1.71256 h 5.2e-4 l 1.17461,0.30334 1.40611,0.006 c 1.64269,0.007 2.0953,-0.0638 3.41995,-0.53279 1.27222,-0.45038 2.14232,-0.99996 3.1657,-1.99884 1.11831,-1.0916 1.82545,-1.91697 2.47685,-2.89181 0.5165,-0.77294 0.57159,-0.88864 0.86403,-1.81023 0.49402,-1.55684 0.83971,-3.07533 0.92501,-4.06383 0.0226,-0.26194 0.11302,-0.89041 0.20102,-1.39682 l 0.15968,-0.92087 0.009,-6.50865 0.009,-6.50864 -0.1757,-2.09548 c -0.22902,-2.7317 -0.5746,-4.92216 -1.13274,-7.17579 -0.45394,-1.83295 -1.24645,-3.715826 -2.39211,-5.683377 -0.71175,-1.22249 -2.41391,-3.490113 -3.69383,-4.921147 -0.40608,-0.454018 -1.09232,-1.23974 -1.52497,-1.746146 -0.43264,-0.506412 -1.21854,-1.363456 -1.74666,-1.904794 -1.76633,-1.810515 -2.85154,-3.061619 -3.44475,-3.972367 -0.68488,-1.05148 -1.16117,-2.381976 -1.16117,-3.244246 -4e-5,-0.27435 -0.0568,-0.941783 -0.12661,-1.483114 -0.17525,-1.359682 -0.17525,-3.501533 0,-4.667415 0.0682,-0.454025 0.12475,-1.011438 0.12557,-1.238684 0.001,-0.318622 0.0503,-0.536515 0.21601,-0.952397 0.47675,-1.196307 0.63908,-1.413846 1.30328,-1.74718 0.51354,-0.257724 0.618,-0.267059 0.9772,-0.08682 0.66807,0.335265 0.85266,0.72685 1.03043,2.183846 0.0733,0.601124 0.0929,1.690414 0.0935,5.159375 l 5.1e-4,4.397148 h 0.30179 c 0.16589,-10e-5 1.48745,-0.07018 2.93677,-0.155546 1.44939,-0.08537 3.74478,-0.174714 5.10098,-0.198954 l 2.466,-0.04444 -0.0325,-3.626135 c -0.0516,-5.737636 -0.18604,-8.694673 -0.45579,-10.040214 -0.056,-0.2794 -0.13975,-0.882377 -0.18655,-1.33997 -0.0755,-0.738396 -0.13292,-0.974128 -0.5116,-2.09548 -0.2812,-0.832695 -0.58916,-1.588151 -0.9033,-2.215885 -0.42049,-0.84027 -0.5512,-1.036471 -1.10794,-1.667082 -0.34711,-0.393151 -0.93799,-0.980554 -1.3131,-1.30483 -1.23158,-1.064677 -2.95376,-1.86842 -4.73925,-2.212784 -0.31693,-0.06113 -0.52449,-0.09411 -0.81493,-0.106971 z M 94.723417,76.759656 c -1.179739,-0.0043 -1.949596,0.0948 -3.478857,0.448551 -2.659695,0.615236 -4.932072,2.004058 -7.053317,4.310331 -1.534152,1.667983 -2.923088,4.298283 -3.353283,6.35 -0.548334,2.615103 -0.559861,2.725099 -0.637171,6.095752 -0.03885,1.693856 -0.07034,3.501149 -0.06976,4.016293 l 0.001,0.936893 h 4.983158 4.983158 l 0.02481,-4.334102 c 0.02805,-4.899576 0.09813,-6.232814 0.360702,-6.84196 0.196774,-0.456518 0.353883,-0.690148 0.611849,-0.910538 0.188993,-0.16147 0.262001,-0.181386 0.703833,-0.190686 0.670892,-0.01408 0.803829,0.06386 1.121895,0.65629 0.46232,0.861125 0.574092,1.979955 0.576192,5.778976 0.0015,2.653605 -0.0077,2.885412 -0.148311,3.806486 -0.170138,1.114413 -0.139025,1.054639 -1.056783,2.021065 -0.553259,0.58259 -1.36537,1.158713 -2.667021,1.891873 -0.419093,0.23606 -1.090785,0.63369 -1.492415,0.88367 -0.401638,0.24997 -0.930131,0.56345 -1.174606,0.6966 -0.244468,0.13315 -0.730277,0.43383 -1.07952,0.66817 -0.34925,0.23433 -0.835046,0.53702 -1.079521,0.67231 -0.603931,0.33422 -1.205776,0.75331 -1.5875,1.10588 -0.174625,0.16128 -0.47561,0.39044 -0.668693,0.50901 -0.507472,0.31163 -1.345244,1.41995 -1.631942,2.15904 -0.602855,1.55413 -0.776547,3.48619 -0.778247,8.66562 -0.0014,4.28957 0.02949,4.66662 0.640788,7.87653 0.403691,2.11969 0.723814,2.82405 1.993677,4.38577 0.908344,1.11716 1.689391,1.81835 2.824634,2.5368 0.647944,0.41006 1.798352,0.90489 2.490804,1.07125 0.663161,0.15932 1.639974,0.13783 2.182295,-0.0486 1.602895,-0.55039 2.214204,-1.16112 3.016354,-3.01377 l 0.471289,-1.08882 0.01705,2.36471 0.01705,2.36523 2.396236,0.56792 c 1.317762,0.31261 3.653173,0.85983 5.189864,1.21595 1.5367,0.35613 2.84428,0.65022 2.90628,0.65422 0.1078,0.006 0.11143,-0.83878 0.0858,-19.28151 -0.0314,-22.485235 -0.0681,-25.107008 -0.38809,-27.670143 -0.0523,-0.4191 -0.0953,-0.963301 -0.0956,-1.209228 -2.7e-4,-0.245935 -0.0979,-0.988954 -0.21704,-1.651062 -0.26002,-1.445041 -0.66144,-2.586355 -1.41386,-4.019393 -0.55336,-1.053917 -1.46914,-2.260689 -2.12391,-2.798796 -0.539734,-0.443587 -1.869584,-1.176164 -2.500101,-1.377177 -0.593332,-0.189162 -1.448167,-0.270135 -2.903182,-0.275435 z m 112.676323,0.0072 c -0.28941,-0.0054 -0.60923,8.94e-4 -1.00614,0.01344 l -1.34152,0.04237 -0.71106,0.28422 c -1.81571,0.725163 -2.25695,0.998252 -3.35587,2.078426 -1.17852,1.158438 -2.3343,3.014482 -2.75797,4.428671 -0.36122,1.205704 -0.54335,1.947655 -0.61495,2.507857 -0.0357,0.2794 -0.1367,0.965145 -0.2248,1.523938 -0.31107,1.974284 -0.34989,2.671878 -0.39429,7.096208 l -0.0419,4.175455 h 5.12216 5.12217 l 0.004,-4.587833 c 0.002,-2.523317 0.0273,-5.088214 0.0563,-5.699394 0.0559,-1.177708 0.0889,-1.29956 0.48008,-1.78387 0.13821,-0.17111 0.60938,-0.375821 0.85938,-0.373621 0.21788,0.0019 0.69349,0.227366 0.9033,0.427881 0.51959,0.496561 0.86888,1.338458 0.87488,2.110465 0.001,0.157176 0.0431,0.471654 0.093,0.698666 0.0712,0.323804 0.091,1.04305 0.093,3.33778 0.003,3.823882 -0.0791,4.516643 -0.6196,5.248259 -0.14231,0.192646 -0.39695,0.451681 -0.56586,0.575675 -0.16891,0.123993 -0.36385,0.28928 -0.43305,0.36742 -0.0692,0.07814 -0.3746,0.306326 -0.67851,0.506946 -0.30391,0.200614 -0.7365,0.52105 -0.9617,0.7121 -0.22519,0.19105 -0.5911,0.45669 -0.81287,0.59015 -2.25559,1.3572 -3.63945,2.31357 -5.9185,4.08915 -0.2724,0.21223 -1.37796,1.43077 -1.71101,1.88619 -0.53537,0.73205 -0.70032,1.05279 -1.04128,2.0221 -0.43551,1.23808 -0.61468,2.55834 -0.78445,5.77846 -0.0295,0.5588 -0.0549,2.80348 -0.0568,4.98781 -0.003,3.53321 0.0105,4.10716 0.12351,5.20381 0.0699,0.67801 0.12712,1.53451 0.12712,1.90325 0,0.7183 0.19297,1.75904 0.5364,2.89129 0.66514,2.19301 0.98136,2.71669 2.1792,3.60857 0.80631,0.60035 1.62552,0.9945 2.26859,1.09192 h 5.2e-4 c 1.65386,0.25012 3.07965,-0.12414 4.6669,-1.22525 1.22956,-0.8529 2.56487,-2.61284 3.14244,-4.14186 0.12533,-0.33179 0.36256,-0.91528 0.5271,-1.29605 l 0.29921,-0.69194 0.0165,2.29546 c 0.0134,1.83818 0.0323,2.29599 0.0987,2.29599 0.0768,0 5.80646,-1.63605 8.91832,-2.54662 l 1.34978,-0.39532 -0.0217,-15.75356 c -0.013,-9.48644 -0.0509,-17.005907 -0.0956,-18.901691 -0.0694,-2.945741 -0.0846,-3.19861 -0.23358,-3.929993 -0.0876,-0.429903 -0.15968,-0.972886 -0.15968,-1.206645 0,-0.234154 -0.0981,-0.907216 -0.21859,-1.499133 -0.37067,-1.82067 -1.08744,-3.378706 -2.45153,-5.328874 -0.47081,-0.67307 -0.82684,-1.091681 -1.46761,-1.722375 -0.74652,-0.734791 -0.9501,-0.894876 -1.72651,-1.35754 -0.48411,-0.288483 -1.37082,-0.73588 -1.96939,-0.994771 -0.89785,-0.388353 -1.32672,-0.530782 -2.45308,-0.811837 -1.57132,-0.392112 -2.16513,-0.515479 -3.03341,-0.531751 z m 3.12953,29.6261 0.0186,0.65991 c 0.0103,0.36268 0.009,3.71683 -0.003,7.45381 -0.0228,7.12707 -0.0169,6.96819 -0.30851,7.9716 -0.0968,0.33297 -0.18065,0.47329 -0.42219,0.70745 -0.16574,0.16068 -0.3926,0.33819 -0.50437,0.39429 -0.12217,0.0614 -0.35015,0.1 -0.57154,0.0972 -0.6314,-0.009 -0.94702,-0.22829 -1.07693,-0.74776 -0.0406,-0.1623 -0.11939,-0.41751 -0.17519,-0.56741 -0.17294,-0.46477 -0.21815,-1.04699 -0.26355,-3.41064 -0.0598,-3.11198 0.0523,-6.09991 0.26045,-6.95307 0.45995,-1.88471 1.23254,-3.41853 2.47685,-4.91856 z m -117.030068,0.18345 0.01705,1.23455 c 0.04078,2.87488 -0.03805,13.19443 -0.104903,13.71234 -0.03832,0.29686 -0.09318,0.71133 -0.12144,0.92088 -0.05397,0.40028 -0.19428,0.72932 -0.412895,0.96841 -0.109617,0.11984 -0.192536,0.14143 -0.516247,0.13643 -0.677737,-0.0109 -1.238431,-0.24689 -1.376144,-0.57929 -0.04112,-0.0993 -0.170831,-0.34021 -0.288354,-0.53537 -0.168605,-0.28001 -0.213361,-0.42359 -0.213424,-0.68058 -5e-5,-0.17912 -0.04489,-0.56872 -0.09973,-0.86558 -0.226791,-1.22746 -0.351678,-4.80461 -0.221692,-6.35 0.310707,-3.6941 0.825581,-5.04126 2.808614,-7.34684 z" /><path
       style="display:inline;fill:#000107;stroke-width:0.0635"
       d="m 143.48195,157.7129 c -4.34728,-0.1403 -9.80016,-0.53032 -14.61346,-1.04522 -5.52368,-0.5909 -7.81422,-0.93301 -14.859,-2.21935 -3.2045,-0.58512 -9.74205,-2.05841 -12.26005,-2.7629 -2.935375,-0.82126 -6.587701,-1.91576 -7.805944,-2.33921 -9.474596,-3.29328 -14.192815,-5.32835 -21.085768,-9.09478 -1.081667,-0.59104 -4.75033,-2.82294 -5.869527,-3.57084 -1.671402,-1.11691 -4.558617,-3.23362 -6.064704,-4.44623 -2.195288,-1.76752 -5.098201,-4.4731 -6.757132,-6.29781 -1.363707,-1.49999 -3.115948,-3.68097 -4.055846,-5.04825 -0.92108,-1.33991 -2.652344,-4.24799 -3.277494,-5.50535 -0.390484,-0.78538 -1.623185,-3.83473 -1.932986,-4.78165 -0.265972,-0.81296 -0.93427,-3.63414 -1.087808,-4.59212 -0.167488,-1.04502 -0.382983,-3.74917 -0.382983,-4.80588 0,-1.05671 0.215495,-3.760867 0.382983,-4.805882 0.153538,-0.957982 0.821836,-3.779163 1.087808,-4.592122 0.335657,-1.025953 1.556936,-4.025278 1.998428,-4.907915 1.635003,-3.268723 4.006948,-6.78308 6.373423,-9.443086 0.946719,-1.064148 2.83224,-3.07475 3.135642,-3.343652 0.143806,-0.127454 0.847253,-0.780934 1.563215,-1.452178 2.662234,-2.495952 6.868981,-5.663796 10.89025,-8.200782 2.109788,-1.331049 3.711569,-2.245622 6.127749,-3.498777 1.552549,-0.805231 5.563757,-2.74085 6.564186,-3.167565 0.45846,-0.195548 1.475434,-0.640147 2.259941,-0.988 1.595806,-0.707583 6.213198,-2.450171 8.987623,-3.391898 4.36167,-1.480487 6.754367,-2.175734 12.955924,-3.764611 4.4861,-1.149367 11.47702,-2.509281 16.00007,-3.112428 8.45211,-1.127083 10.12912,-1.303554 15.71625,-1.653816 5.08617,-0.318856 5.43199,-0.329463 11.811,-0.362268 5.60138,-0.02881 6.48165,-0.01913 9.23925,0.1015 1.6764,0.07334 3.71951,0.176725 4.54025,0.229754 1.95198,0.126119 6.99807,0.559478 8.89,0.763476 2.46897,0.266217 7.24215,0.906377 8.73125,1.171001 0.76835,0.136541 2.047,0.350041 2.84144,0.474444 2.85616,0.447251 10.31857,2.049419 13.79556,2.961885 4.5605,1.196812 10.44263,3.013479 13.23975,4.089034 4.64238,1.785095 7.59511,2.990284 9.33859,3.811638 0.64386,0.303323 1.68501,0.779535 2.31366,1.058247 1.09849,0.487018 2.09326,0.996051 4.34975,2.225803 5.81521,3.16921 9.92274,5.948464 14.605,9.882112 2.65779,2.232859 5.41581,5.094106 7.61925,7.904438 1.08663,1.385922 2.8976,4.021905 3.67066,5.342894 1.41853,2.423951 2.9268,6.065153 3.59944,8.689594 0.58206,2.271062 0.85288,4.051306 0.98941,6.504108 0.20558,3.693202 -0.43399,7.959742 -1.74675,11.652502 -0.77904,2.19143 -1.85579,4.55128 -2.86041,6.26905 -0.89321,1.52727 -2.97284,4.49841 -4.28908,6.12775 -1.34544,1.6655 -3.94643,4.40269 -5.58552,5.87801 -3.60267,3.24272 -9.4853,7.44606 -13.87475,9.91398 -5.40432,3.03854 -8.43264,4.48589 -14.4145,6.88926 -5.1904,2.08539 -10.71239,3.89184 -16.8275,5.50492 -1.30459,0.34413 -5.4743,1.32617 -8.255,1.9442 -3.64601,0.81035 -11.09229,2.03132 -14.89075,2.44165 -1.13506,0.12261 -3.12102,0.33683 -4.41325,0.47604 -1.29222,0.13922 -3.0353,0.29757 -3.8735,0.35189 -0.8382,0.0543 -2.18122,0.15496 -2.9845,0.22363 -3.17034,0.27099 -6.95355,0.38143 -12.69742,0.37067 -2.93511,-0.005 -6.01857,-0.032 -6.85212,-0.0589 z m 15.07537,-0.3765 c 1.6226,-0.0704 3.6074,-0.1841 4.41067,-0.25276 0.80328,-0.0687 2.1463,-0.1693 2.9845,-0.22363 0.8382,-0.0543 2.58128,-0.21267 3.8735,-0.35189 1.29223,-0.13921 3.27819,-0.35343 4.41325,-0.47604 3.79846,-0.41033 11.24474,-1.6313 14.89075,-2.44165 2.7807,-0.61803 6.95041,-1.60007 8.255,-1.9442 6.11511,-1.61308 11.6371,-3.41953 16.8275,-5.50492 5.96438,-2.39635 8.92531,-3.81092 14.2875,-6.82576 3.85892,-2.16964 8.98911,-5.75706 12.6365,-8.83641 2.88633,-2.43681 5.83652,-5.57405 8.03374,-8.54308 0.88737,-1.19907 2.49092,-3.5796 3.01559,-4.47675 0.98531,-1.68479 2.02065,-3.95841 2.79693,-6.14205 1.30531,-3.67183 1.94947,-7.93682 1.74551,-11.557093 -0.13689,-2.429826 -0.40924,-4.213686 -0.98817,-6.472517 -0.66825,-2.60734 -2.1482,-6.191143 -3.53595,-8.562594 -0.22482,-0.384175 -0.89781,-1.431165 -1.49553,-2.326644 -2.63527,-3.948022 -6.07478,-7.785637 -9.73087,-10.857188 -4.68226,-3.933652 -8.79532,-6.716604 -14.605,-9.881961 -2.25934,-1.230985 -3.13507,-1.679255 -4.22859,-2.164547 -0.62544,-0.277561 -1.66396,-0.752831 -2.30782,-1.056154 -1.74348,-0.821354 -4.69621,-2.026543 -9.33859,-3.811638 -2.79712,-1.075555 -8.67925,-2.892222 -13.23975,-4.089034 -3.47699,-0.912466 -10.9394,-2.514634 -13.79556,-2.961885 -0.79444,-0.124403 -2.07309,-0.337903 -2.84144,-0.474444 -1.4891,-0.264624 -6.26228,-0.904784 -8.73125,-1.171001 -1.89193,-0.203998 -6.93802,-0.637357 -8.89,-0.763476 -0.82074,-0.05303 -2.86385,-0.156429 -4.54025,-0.22978 -2.75513,-0.12055 -3.63678,-0.130295 -9.17575,-0.101425 -6.31635,0.03292 -6.66746,0.04375 -11.7475,0.362219 -5.58713,0.350262 -7.26414,0.526733 -15.71625,1.653816 -4.52305,0.603147 -11.51397,1.963061 -16.00007,3.112428 -6.201557,1.588877 -8.594254,2.284124 -12.955924,3.764612 -2.774425,0.941726 -7.391817,2.684314 -8.987623,3.391897 -0.784507,0.347853 -1.801481,0.792453 -2.259941,0.988 -1.739901,0.742123 -6.240336,2.966883 -8.531895,4.217686 -5.114232,2.791503 -11.268572,7.157565 -14.92329,10.587004 -0.715962,0.67183 -1.40371,1.309514 -1.528328,1.417077 -0.2647,0.228471 -2.167805,2.258464 -3.107029,3.314187 -2.346324,2.637356 -4.739314,6.176641 -6.341518,9.379245 -0.415474,0.830481 -1.641673,3.850887 -1.966833,4.844756 -0.265972,0.812959 -0.93427,3.63414 -1.087808,4.592122 -0.163237,1.018494 -0.382983,3.739552 -0.382983,4.742382 0,1.00282 0.219746,3.72388 0.382983,4.74238 0.153538,0.95798 0.821836,3.77916 1.087808,4.59212 0.298027,0.91093 1.536576,3.9845 1.901449,4.71861 0.596252,1.19964 2.344205,4.13022 3.245531,5.44139 0.939769,1.36709 2.691807,3.54786 4.055788,5.04825 1.637532,1.8013 4.506017,4.47293 6.69369,6.23431 1.506087,1.21261 4.393302,3.32932 6.064704,4.44623 1.119197,0.7479 4.78786,2.9798 5.869527,3.57084 6.820262,3.72671 11.503198,5.74462 20.958768,9.03128 1.218243,0.42345 4.870569,1.51795 7.805944,2.33921 2.518,0.70449 9.05555,2.17778 12.26005,2.7629 7.04478,1.28634 9.33532,1.62845 14.859,2.21935 3.3065,0.35371 4.97418,0.49775 8.09625,0.69926 5.57794,0.36003 6.636,0.39223 13.30583,0.40487 4.38597,0.008 5.76939,-0.0115 8.22325,-0.11791 z"
       id="path485" /></g></svg>
